<svg width="60" height="60" viewBox="0 0 60 60" fill="none" xmlns="http://www.w3.org/2000/svg">
<path d="M51.9724 48.9775L30.7225 33.9775C30.2902 33.6721 29.7123 33.6721 29.28 33.9775L8.03004 48.9775C7.69758 49.2117 7.49977 49.5932 7.5 49.9999V51.25C7.49988 51.9403 8.05957 52.5 8.74992 52.5H51.25C51.9403 52.5 52.5 51.9403 52.5 51.25V49.9999C52.5007 49.5937 52.3039 49.2123 51.9724 48.9775Z" fill="#CFD8DC"/>
<path d="M30.7225 33.9775L9.4725 18.9775C8.90918 18.5784 8.12895 18.7117 7.72992 19.275C7.57981 19.4869 7.49942 19.7402 7.5 19.9999V49.9999C7.4986 50.6903 8.05723 51.251 8.74758 51.2524C9.00727 51.2529 9.26063 51.1725 9.4725 51.0225L30.7225 36.0225C31.2865 35.6244 31.421 34.8445 31.0229 34.2805C30.9407 34.1639 30.8391 34.0623 30.7225 33.98V33.9775Z" fill="#FAFAFA"/>
<path d="M51.8248 18.89C51.4093 18.6777 50.9105 18.7113 50.5273 18.9776L29.2774 33.9776C28.7133 34.3757 28.5788 35.1556 28.9769 35.7196C29.0592 35.8362 29.1608 35.9378 29.2774 36.02L50.5273 51.0201C51.0907 51.4191 51.8709 51.2858 52.2699 50.7225C52.4196 50.5113 52.4998 50.2589 52.4998 50.0001V20C52.4998 19.5329 52.2396 19.1048 51.8248 18.89Z" fill="#EEEEEE"/>
<path d="M54.9376 8.36004C54.7691 7.84687 54.2901 7.5 53.7501 7.5H6.25004C5.55969 7.5 5 8.05969 5 8.75004C5 9.14344 5.18527 9.51398 5.50004 9.75L29.2501 27.25C29.6909 27.5746 30.2918 27.5746 30.7326 27.25L54.4825 9.75C54.9178 9.43301 55.101 8.87297 54.9376 8.36004Z" fill="#ECEFF1"/>
<path d="M53.75 7.5C53.4796 7.5 53.2164 7.58777 53 7.74996L30 24.6975L6.99996 7.74996C6.78363 7.58777 6.52043 7.5 6.24996 7.5C2.7982 7.5 0 10.2982 0 13.75V46.2499C0 49.7018 2.7982 52.5 6.24996 52.5H8.74992C9.44027 52.5 9.99996 51.9403 9.99996 51.25V22.4125L29.2774 36.0225C29.7097 36.3279 30.2876 36.3279 30.7199 36.0225L49.9999 22.4125V51.25C49.9999 51.9403 50.5596 52.5 51.25 52.5H53.7499C57.2018 52.5 60 49.7018 60 46.25V13.75C60 10.2982 57.2018 7.5 53.75 7.5Z" fill="#F44336"/>
</svg>
