<svg width="60" height="60" viewBox="0 0 60 60" fill="none" xmlns="http://www.w3.org/2000/svg">
<path d="M29.9999 57.5004C41.0458 57.5004 50.0003 48.5459 50.0003 37.5C50.0003 26.4541 41.0458 17.4996 29.9999 17.4996C18.954 17.4996 9.99951 26.4541 9.99951 37.5C9.99951 48.5459 18.954 57.5004 29.9999 57.5004Z" fill="#FFD38D"/>
<path d="M29.9999 40.0008C32.7615 40.0008 35.0003 37.762 35.0003 35.0004C35.0003 32.2388 32.7615 30 29.9999 30C27.2383 30 24.9995 32.2388 24.9995 35.0004C24.9995 37.762 27.2383 40.0008 29.9999 40.0008Z" fill="#ED7C69"/>
<path d="M42.5004 18.8016V12.5004C42.4685 9.2062 41.1375 6.05777 38.7968 3.73962C36.4561 1.42148 33.2949 0.121033 30.0006 0.121033C26.7062 0.121033 23.5451 1.42148 21.2044 3.73962C18.8637 6.05777 17.5327 9.2062 17.5008 12.5004V18.8016C14.4254 20.8562 11.9039 23.6373 10.1595 26.8988C8.41516 30.1602 7.50171 33.8014 7.5 37.5C7.5 49.9055 17.5934 60 30 60C42.4066 60 52.5 49.9055 52.5 37.5C52.4984 33.8015 51.5851 30.1604 49.841 26.899C48.0968 23.6375 45.5756 20.8564 42.5004 18.8016ZM22.5 12.5004C22.5 10.5113 23.2902 8.60361 24.6967 7.19709C26.1032 5.79057 28.0109 5.00039 30 5.00039C31.9891 5.00039 33.8968 5.79057 35.3033 7.19709C36.7098 8.60361 37.5 10.5113 37.5 12.5004V16.2891C32.6472 14.5733 27.3528 14.5733 22.5 16.2891V12.5004ZM30 55.0008C20.3508 55.0008 12.5004 47.1492 12.5004 37.5012C12.5004 27.8531 20.352 20.0016 30 20.0016C39.648 20.0016 47.4996 27.8531 47.4996 37.5012C47.4996 47.1492 39.6492 54.9996 30 54.9996V55.0008Z" fill="#6D4135"/>
<path d="M29.9998 27.5004C28.2312 27.5013 26.5198 28.1271 25.1679 29.2674C23.8159 30.4077 22.9105 31.9891 22.6114 33.7322C22.3124 35.4754 22.639 37.2681 23.5335 38.7938C24.4281 40.3195 25.833 41.48 27.5002 42.0703V47.5008C27.5002 48.1639 27.7636 48.7998 28.2325 49.2687C28.7014 49.7376 29.3373 50.001 30.0004 50.001C30.6635 50.001 31.2994 49.7376 31.7683 49.2687C32.2372 48.7998 32.5006 48.1639 32.5006 47.5008V42.0703C34.1679 41.48 35.5729 40.3194 36.4674 38.7936C37.362 37.2677 37.6885 35.4749 37.3893 33.7316C37.0901 31.9884 36.1844 30.407 34.8323 29.2668C33.4801 28.1266 31.7685 27.501 29.9998 27.5004ZM29.9998 37.5C29.5054 37.5 29.0222 37.3534 28.6111 37.0787C28.2 36.8041 27.8797 36.4137 27.6905 35.957C27.5013 35.5002 27.4518 34.9976 27.5482 34.5127C27.6447 34.0279 27.8827 33.5825 28.2323 33.2329C28.5819 32.8833 29.0273 32.6453 29.5122 32.5488C29.997 32.4524 30.4996 32.5019 30.9564 32.6911C31.4131 32.8802 31.8035 33.2006 32.0782 33.6117C32.3528 34.0227 32.4994 34.506 32.4994 35.0004C32.4985 35.663 32.2348 36.2983 31.7663 36.7669C31.2977 37.2354 30.6625 37.4991 29.9998 37.5Z" fill="#6D4135"/>
</svg>
